<svg xmlns="http://www.w3.org/2000/svg" version="1.1" xmlns:xlink="http://www.w3.org/1999/xlink" xmlns:svgjs="http://svgjs.com/svgjs" width="1900" height="1080" preserveAspectRatio="none" viewBox="0 0 1900 1080"><g mask="url(&quot;#SvgjsMask1295&quot;)" fill="none"><path d="M1285.015,334.263C1330.164,334.878,1373.036,314.031,1397.067,275.804C1422.772,234.914,1431.344,182.391,1406.538,140.95C1382.259,100.39,1332.284,88.229,1285.015,88.615C1238.569,88.995,1190.196,102.734,1166.884,142.908C1143.502,183.203,1153.653,233.182,1178.126,272.824C1201.264,310.304,1240.972,333.663,1285.015,334.263" fill="rgba(44, 152, 240, 1)" class="triangle-float3"></path><path d="M1049.822,604.019C1102.862,602.236,1145.84,565.422,1171.678,519.067C1196.754,474.079,1204.748,418.703,1177.466,375.017C1151.448,333.356,1098.936,324.547,1049.822,323.941C999.253,323.317,944.803,329.818,916.602,371.798C885.521,418.065,885.163,479.419,912.898,527.765C940.76,576.333,993.862,605.9,1049.822,604.019" fill="rgba(44, 152, 240, 1)" class="triangle-float3"></path><path d="M355.73605143727764 964.1634184506739L641.6002642444154 1035.4373717142155 712.8742175079569 749.5731589070778 427.0100047008192 678.2992056435362z" fill="rgba(44, 152, 240, 1)" class="triangle-float3"></path><path d="M1211.3420233838451-43.09397987756307L1041.5009394868314-76.10774226974979 1008.4871770946447 93.73334162726394 1178.3282609916585 126.74710401945066z" fill="rgba(44, 152, 240, 1)" class="triangle-float2"></path><path d="M1514.031,619.521C1574.546,622.283,1632.083,587.218,1660.179,533.549C1686.563,483.15,1673.746,422.477,1641.84,375.38C1613.752,333.919,1564.11,317.97,1514.031,317.817C1463.621,317.663,1411.214,331.621,1384.858,374.593C1357.464,419.257,1364.859,474.837,1389.301,521.183C1415.772,571.375,1457.345,616.933,1514.031,619.521" fill="rgba(44, 152, 240, 1)" class="triangle-float3"></path><path d="M179.90548113649336 822.3335523512106L278.93266113290883 663.8569368893837-8.295852058039259 594.554474625674z" fill="rgba(44, 152, 240, 1)" class="triangle-float2"></path><path d="M-3.082,383.925C45.712,383.157,91.65,360.018,116.587,318.07C142.079,275.189,145.744,220.609,119.06,178.46C93.881,138.687,43.987,129.643,-3.082,129.046C-51.578,128.431,-104.137,134.721,-130.715,175.29C-159.428,219.117,-156.798,277.246,-129.456,321.941C-103.214,364.838,-53.363,384.716,-3.082,383.925" fill="rgba(44, 152, 240, 1)" class="triangle-float2"></path><path d="M643.6579869175749 467.34616046536195L728.4763099937562 641.2494941047705 902.379643633165 556.4311710285892 817.5613205569836 382.5278373891806z" fill="rgba(44, 152, 240, 1)" class="triangle-float1"></path></g><defs><mask id="SvgjsMask1295"><rect width="1900" height="1080" fill="#ffffff"></rect></mask><style>
            @keyframes float1 {
                0%{transform: translate(0, 0)}
                50%{transform: translate(-15px, 0)}
                100%{transform: translate(0, 0)}
            }

            .triangle-float1 {
                animation: float1 5s infinite;
            }

            @keyframes float2 {
                0%{transform: translate(0, 0)}
                50%{transform: translate(-10px, -10px)}
                100%{transform: translate(0, 0)}
            }

            .triangle-float2 {
                animation: float2 4s infinite;
            }

            @keyframes float3 {
                0%{transform: translate(0, 0)}
                50%{transform: translate(0, -15px)}
                100%{transform: translate(0, 0)}
            }

            .triangle-float3 {
                animation: float3 6s infinite;
            }
        </style></defs></svg>